<svg width="265" height="167" viewBox="0 0 265 167" fill="none" xmlns="http://www.w3.org/2000/svg">
<rect opacity="0.6" x="0.5" y="0.5" width="264" height="166" rx="7.5" fill="white" stroke="#DDDDDD"/>
<rect x="12.1342" y="10.8566" width="240.732" height="145.287" rx="5.5" fill="url(#paint0_linear_382_5032)" stroke="#DDDDDD"/>
<rect x="19.3903" y="23.3023" width="40.0732" height="25.8915" fill="#D92E27"/>
<rect x="19.3903" y="23.3023" width="20.6829" height="12.9457" fill="#212845"/>
<ellipse cx="29.7317" cy="29.7752" rx="2.58537" ry="2.58915" fill="white"/>
<rect opacity="0.49" x="65.9268" y="29.7752" width="89.1951" height="14.2403" fill="white"/>
<rect opacity="0.49" x="192.61" y="112.628" width="19.3902" height="10.3566" fill="white"/>
<rect opacity="0.49" x="173.22" y="126.868" width="29.7317" height="6.47287" fill="white"/>
<rect opacity="0.49" x="173.22" y="137.225" width="73.6829" height="10.3566" fill="white"/>
<rect opacity="0.49" x="215.878" y="112.628" width="14.2195" height="10.3566" fill="white"/>
<rect opacity="0.49" x="19.3903" y="77.6744" width="25.8537" height="10.3566" fill="white"/>
<rect opacity="0.49" x="19.3903" y="135.93" width="25.8537" height="10.3566" fill="white"/>
<rect opacity="0.49" x="19.3903" y="103.566" width="25.8537" height="10.3566" fill="white"/>
<rect opacity="0.49" x="19.3903" y="116.512" width="25.8537" height="10.3566" fill="white"/>
<rect opacity="0.49" x="51.7073" y="77.6744" width="86.6098" height="15.5349" fill="white"/>
<rect opacity="0.49" x="51.7073" y="111.333" width="108.585" height="10.3566" fill="white"/>
<rect opacity="0.49" x="51.7073" y="135.93" width="116.341" height="10.3566" fill="white"/>
<path d="M216.553 45.589C204.511 40.487 198.799 36.5059 197.448 35.1531L204.395 103.566H178.923C179.502 93.3233 179.386 72.0264 181.238 57.1843C183.554 38.6317 187.314 34.9391 189.922 31.6745C192.238 28.7757 197.448 26.4566 197.448 25.297C197.448 22.3982 211.342 22.3982 220.605 27.0364C229.868 31.6745 233.382 39.6701 236.815 58.9236C239.71 75.1572 239.324 94.0963 239.71 103.566H209.027L213.079 87.3323L220.026 79.2156L228.71 67.0404C229.675 62.0157 228.594 50.6909 216.553 45.589Z" fill="#4D4658"/>
<path d="M199.445 99.9585V87.5901L219.766 85.0133V92.2282C219.766 95.9387 220.711 101.333 221.184 103.566H198.027C198.5 103.222 199.445 102.02 199.445 99.9585Z" fill="#F6DCCF"/>
<path d="M228.131 60.663C228.131 77.9537 216.4 91.9705 207.869 91.9705C199.871 91.9705 187.607 77.9537 187.607 60.663C187.607 43.3723 194.005 29.3555 207.869 29.3555C221.732 29.3555 228.131 43.3723 228.131 60.663Z" fill="#F9E4D9"/>
<path d="M183.434 57.9417C184.524 56.57 187.068 57.3702 188.203 57.9417C188.657 62.3235 191.833 71.4727 188.203 71.087C186.851 70.9433 185.478 68.2293 184.796 66.5147C184.115 64.8001 182.071 59.6563 183.434 57.9417Z" fill="#F9E4D9"/>
<path d="M232.304 57.9417C231.214 56.57 228.67 57.3702 227.534 57.9417C227.08 62.3235 223.905 71.4727 227.534 71.087C228.886 70.9433 230.26 68.2293 230.941 66.5147C231.623 64.8001 233.667 59.6563 232.304 57.9417Z" fill="#F9E4D9"/>
<path d="M197.174 31.7244C196.721 30.0023 196.567 28.2082 196.567 27.0364L213.114 27.6161L221.978 32.2543C224.539 35.3464 230.251 43.3859 232.615 50.8069C234.979 58.228 233.6 62.0158 232.615 62.9821C230.054 59.5035 223.278 51.2707 216.659 46.1688C209.788 40.8718 205.362 38.7745 202.028 37.2193C199.007 37.0746 195.102 37.2707 193.021 38.6318C190.185 40.487 187.506 44.4295 186.521 46.1688L185.339 56.0248L184.157 57.1844L182.975 50.8069L186.521 41.5306L189.476 36.3127L194.203 32.2543L197.174 31.7244Z" fill="#4D4658"/>
<path fill-rule="evenodd" clip-rule="evenodd" d="M168.049 100.977H11.6342V100.477H168.049V100.977Z" fill="#C1C1C1"/>
<path fill-rule="evenodd" clip-rule="evenodd" d="M168.049 129.457H11.6342V128.957H168.049V129.457Z" fill="#C1C1C1"/>
<defs>
<linearGradient id="paint0_linear_382_5032" x1="11.6342" y1="84.1252" x2="253.366" y2="84.1252" gradientUnits="userSpaceOnUse">
<stop stop-color="#DBD8E1"/>
<stop offset="0.34" stop-color="#F0EADA"/>
<stop offset="0.67954" stop-color="#F0EADA"/>
<stop offset="1" stop-color="#DBD8E1"/>
</linearGradient>
</defs>
</svg>
