<svg width="260" height="310" viewBox="0 0 260 310" fill="none" xmlns="http://www.w3.org/2000/svg">
<g opacity="0.7">
<path d="M225.905 154.821C236 211.25 234.654 277.083 236 310H112.838H24C26.019 274.396 25.6155 200.367 32.0765 148.775C40.1527 84.2857 53.2669 71.45 62.3622 60.102C70.4384 50.0255 88.6098 41.9643 88.6098 37.9336C88.6098 27.8571 137.067 27.8572 169.372 43.9796C201.676 60.1021 213.932 87.8952 225.905 154.821Z" fill="#4D4658"/>
<path d="M95.2362 296.698V252.431L165.775 243.209V269.031C165.775 282.311 169.055 301.616 170.696 309.609H90.3149C91.9553 308.379 95.2362 304.076 95.2362 296.698Z" fill="#F6DCCF"/>
<path d="M194.81 160.685C194.81 220.704 154.091 269.358 124.477 269.358C96.7139 269.358 54.1437 220.704 54.1437 160.685C54.1437 100.667 76.3542 52.0122 124.477 52.0122C172.6 52.0122 194.81 100.667 194.81 160.685Z" fill="#F9E4D9"/>
<path d="M70.0118 235.689C65.4978 223.418 62.8949 211.012 62.1577 206.343L48.8261 195.34L41.2846 196.531L35.577 201.177L37.3078 212.139L47.3048 222.421L57.8651 252.588C63.7948 252.068 74.5258 247.96 70.0118 235.689Z" fill="#4D4658"/>
<path d="M209.523 150.629C205.739 145.868 196.909 148.645 192.967 150.629C191.39 165.839 180.367 197.597 192.967 196.258C197.66 195.759 202.428 186.339 204.793 180.387C207.158 174.435 214.253 156.581 209.523 150.629Z" fill="#F9E4D9"/>
<path fill-rule="evenodd" clip-rule="evenodd" d="M192.03 187.107C193.727 178.645 194.667 169.79 194.667 160.673C194.667 158.573 194.639 156.486 194.585 154.416C201.347 151.177 204.728 153.676 204.728 158.59C204.728 162.23 203.228 168.59 201.728 172.59C201.317 173.686 200.441 174.829 199.517 176.035C198.427 177.457 197.269 178.967 196.728 180.59C196.269 181.968 195.952 184.401 195.703 186.318C195.518 187.74 195.37 188.877 195.228 189.09C195.228 188.59 194.928 187.49 193.728 187.09C193.07 186.871 192.481 186.942 192.03 187.107Z" fill="#F1CAB4"/>
<path d="M67 100.068C75.8 82.8683 98.3333 78.9017 108.5 79.0683L104 67.5684L95 62.5684L73 67.5684L58.5 86.0684L40.5 143.068L54 151.068C54.6667 141.235 58.2 117.268 67 100.068Z" fill="#4D4658"/>
<path d="M41.6586 151.239C45.4429 146.477 54.2728 149.255 58.2147 151.239C59.7914 166.448 70.8144 198.206 58.2147 196.868C53.522 196.369 48.7541 186.948 46.389 180.997C44.0238 175.045 36.9283 157.19 41.6586 151.239Z" fill="#F9E4D9"/>
<path fill-rule="evenodd" clip-rule="evenodd" d="M54.062 155.216C48.354 153.077 45.5 155.553 45.5 160.069C45.5 163.709 47 170.069 48.5 174.069C48.9108 175.164 49.7869 176.307 50.7114 177.513C51.8015 178.935 52.9589 180.445 53.5 182.069C53.9593 183.447 54.2758 185.88 54.5252 187.796C54.7101 189.218 54.8581 190.356 55 190.568C55 190.068 55.3 188.968 56.5 188.568C56.6835 188.507 56.8615 188.469 57.0326 188.449C55.0892 179.582 54 170.273 54 160.673C54 158.843 54.0206 157.024 54.062 155.216Z" fill="#F1CAB4"/>
<path d="M100.5 77.0684C86.9 70.2684 84.8333 59.5684 85.5 55.0684C88 44.5684 114.5 38.0684 129.5 39.5684C144.5 41.0684 165 49.0684 183.5 59.5684C202 70.0684 208 98.0684 214.5 116.568C221 135.068 222.5 153.568 225.5 168.568C227.9 180.568 225.167 195.235 223.5 201.068C222.167 200.402 219 197.168 217 189.568C214.5 180.068 208 165.068 199.5 155.068C191 145.068 169.5 123.068 151 106.568C132.5 90.0684 117.5 85.5684 100.5 77.0684Z" fill="#4D4658"/>
<path fill-rule="evenodd" clip-rule="evenodd" d="M127 154.568C124.5 154.568 116.608 195.068 116.608 195.068C116.608 195.068 119 200.068 127 200.068V154.568Z" fill="#F2CEBA"/>
<path fill-rule="evenodd" clip-rule="evenodd" d="M127 154.568C129.5 154.568 137.392 195.068 137.392 195.068C137.392 195.068 135 200.068 127 200.068V154.568Z" fill="#F2CEBA"/>
</g>
</svg>
