<svg width="343" height="230" viewBox="0 0 343 230" fill="none" xmlns="http://www.w3.org/2000/svg">
<path fill-rule="evenodd" clip-rule="evenodd" d="M330.659 0L327 9.6236L328.869 10.3343L332.528 0.710737L330.659 0ZM10.4791 16.4747L0.99995 12.4564L1.78053 10.615L11.2596 14.6333L10.4791 16.4747ZM46 12H29C20.1634 12 12.9999 19.1634 12.9999 28V43H14.9999V28C14.9999 20.268 21.268 14 29 14H46V12ZM328 43.1534V28C328 20.268 321.732 14 314 14H294.958L294.967 12H314C322.836 12 330 19.1634 330 28V43.1627L328 43.1534ZM295 215H314C321.732 215 328 208.732 328 201V184H330V201C330 209.837 322.836 217 314 217H295V215ZM14.9999 184V201C14.9999 208.732 21.268 215 29 215H46V217H29C20.1634 217 12.9999 209.837 12.9999 201V184H14.9999ZM333.051 213.27L342.53 217.288L341.75 219.129L332.271 215.111L333.051 213.27ZM12.8715 229.744L16.5303 220.121L14.6608 219.41L11.0021 229.034L12.8715 229.744ZM328.601 219.015L332.214 228.385L330.348 229.104L326.735 219.734L328.601 219.015ZM1.39463 219.853L10.622 215.89L9.83268 214.052L0.605347 218.015L1.39463 219.853ZM14.9295 10.7297L11.3163 1.35978L13.1824 0.640211L16.7955 10.0101L14.9295 10.7297ZM342.136 9.89161L332.908 13.8547L333.698 15.6924L342.925 11.7293L342.136 9.89161Z" fill="#22DDB9"/>
</svg>
